<mxfile host="app.diagrams.net" modified="2023-09-08T22:52:59.142Z" agent="Mozilla/5.0 (Macintosh; Intel Mac OS X 10_15_7) AppleWebKit/605.1.15 (KHTML, like Gecko) Version/15.4 Safari/605.1.15" etag="Uca3sSdt9gC2ZKYfEVMf" version="21.7.4" type="github">
  <diagram name="Page-1" id="NO97j6RWfG9kNA30Efwa">
    <mxGraphModel dx="1434" dy="804" grid="1" gridSize="10" guides="1" tooltips="1" connect="1" arrows="1" fold="1" page="1" pageScale="1" pageWidth="827" pageHeight="1169" math="0" shadow="0">
      <root>
        <mxCell id="0" />
        <mxCell id="1" parent="0" />
        <mxCell id="zUUF1OLP11Qtt3YsDHOW-8" style="edgeStyle=orthogonalEdgeStyle;orthogonalLoop=1;jettySize=auto;html=1;exitX=1;exitY=0.5;exitDx=0;exitDy=0;entryX=0;entryY=0.5;entryDx=0;entryDy=0;curved=1;" edge="1" parent="1" source="zUUF1OLP11Qtt3YsDHOW-1" target="zUUF1OLP11Qtt3YsDHOW-6">
          <mxGeometry relative="1" as="geometry" />
        </mxCell>
        <mxCell id="zUUF1OLP11Qtt3YsDHOW-17" value="(0, 2)" style="edgeLabel;html=1;align=center;verticalAlign=middle;resizable=0;points=[];" vertex="1" connectable="0" parent="zUUF1OLP11Qtt3YsDHOW-8">
          <mxGeometry x="0.4" y="4" relative="1" as="geometry">
            <mxPoint x="1" y="12" as="offset" />
          </mxGeometry>
        </mxCell>
        <mxCell id="zUUF1OLP11Qtt3YsDHOW-9" style="edgeStyle=orthogonalEdgeStyle;orthogonalLoop=1;jettySize=auto;html=1;exitX=1;exitY=0.5;exitDx=0;exitDy=0;entryX=0;entryY=0.5;entryDx=0;entryDy=0;curved=1;" edge="1" parent="1" source="zUUF1OLP11Qtt3YsDHOW-1" target="zUUF1OLP11Qtt3YsDHOW-5">
          <mxGeometry relative="1" as="geometry" />
        </mxCell>
        <mxCell id="zUUF1OLP11Qtt3YsDHOW-16" value="(2,0)" style="edgeLabel;html=1;align=center;verticalAlign=middle;resizable=0;points=[];" vertex="1" connectable="0" parent="zUUF1OLP11Qtt3YsDHOW-9">
          <mxGeometry x="0.68" y="3" relative="1" as="geometry">
            <mxPoint as="offset" />
          </mxGeometry>
        </mxCell>
        <mxCell id="zUUF1OLP11Qtt3YsDHOW-10" style="edgeStyle=orthogonalEdgeStyle;rounded=0;orthogonalLoop=1;jettySize=auto;html=1;exitX=1;exitY=0.5;exitDx=0;exitDy=0;entryX=0;entryY=0.5;entryDx=0;entryDy=0;" edge="1" parent="1" source="zUUF1OLP11Qtt3YsDHOW-1" target="zUUF1OLP11Qtt3YsDHOW-4">
          <mxGeometry relative="1" as="geometry" />
        </mxCell>
        <mxCell id="zUUF1OLP11Qtt3YsDHOW-15" value="(1,1)" style="edgeLabel;html=1;align=center;verticalAlign=middle;resizable=0;points=[];" vertex="1" connectable="0" parent="zUUF1OLP11Qtt3YsDHOW-10">
          <mxGeometry x="0.3714" y="1" relative="1" as="geometry">
            <mxPoint as="offset" />
          </mxGeometry>
        </mxCell>
        <mxCell id="zUUF1OLP11Qtt3YsDHOW-11" style="edgeStyle=orthogonalEdgeStyle;orthogonalLoop=1;jettySize=auto;html=1;exitX=1;exitY=0.5;exitDx=0;exitDy=0;entryX=0;entryY=0.5;entryDx=0;entryDy=0;curved=1;" edge="1" parent="1" source="zUUF1OLP11Qtt3YsDHOW-1" target="zUUF1OLP11Qtt3YsDHOW-3">
          <mxGeometry relative="1" as="geometry" />
        </mxCell>
        <mxCell id="zUUF1OLP11Qtt3YsDHOW-14" value="(0,1)" style="edgeLabel;html=1;align=center;verticalAlign=middle;resizable=0;points=[];" vertex="1" connectable="0" parent="zUUF1OLP11Qtt3YsDHOW-11">
          <mxGeometry x="0.2092" y="-3" relative="1" as="geometry">
            <mxPoint x="12" y="-17" as="offset" />
          </mxGeometry>
        </mxCell>
        <mxCell id="zUUF1OLP11Qtt3YsDHOW-12" style="edgeStyle=orthogonalEdgeStyle;orthogonalLoop=1;jettySize=auto;html=1;exitX=1;exitY=0.5;exitDx=0;exitDy=0;entryX=0;entryY=0.5;entryDx=0;entryDy=0;curved=1;" edge="1" parent="1" source="zUUF1OLP11Qtt3YsDHOW-1" target="zUUF1OLP11Qtt3YsDHOW-2">
          <mxGeometry relative="1" as="geometry" />
        </mxCell>
        <mxCell id="zUUF1OLP11Qtt3YsDHOW-13" value="(1,0)" style="edgeLabel;html=1;align=center;verticalAlign=middle;resizable=0;points=[];" vertex="1" connectable="0" parent="zUUF1OLP11Qtt3YsDHOW-12">
          <mxGeometry x="0.1347" y="-2" relative="1" as="geometry">
            <mxPoint x="3" y="-37" as="offset" />
          </mxGeometry>
        </mxCell>
        <mxCell id="zUUF1OLP11Qtt3YsDHOW-1" value="(3, 3, 0, 0, 1)" style="rounded=1;whiteSpace=wrap;html=1;" vertex="1" parent="1">
          <mxGeometry x="30" y="310" width="120" height="40" as="geometry" />
        </mxCell>
        <mxCell id="zUUF1OLP11Qtt3YsDHOW-47" style="edgeStyle=orthogonalEdgeStyle;orthogonalLoop=1;jettySize=auto;html=1;exitX=1;exitY=0.5;exitDx=0;exitDy=0;entryX=0;entryY=0.5;entryDx=0;entryDy=0;curved=1;" edge="1" parent="1" source="zUUF1OLP11Qtt3YsDHOW-2" target="zUUF1OLP11Qtt3YsDHOW-30">
          <mxGeometry relative="1" as="geometry" />
        </mxCell>
        <mxCell id="zUUF1OLP11Qtt3YsDHOW-48" style="edgeStyle=orthogonalEdgeStyle;orthogonalLoop=1;jettySize=auto;html=1;exitX=1;exitY=0.5;exitDx=0;exitDy=0;entryX=0;entryY=0.5;entryDx=0;entryDy=0;curved=1;" edge="1" parent="1" source="zUUF1OLP11Qtt3YsDHOW-2" target="zUUF1OLP11Qtt3YsDHOW-31">
          <mxGeometry relative="1" as="geometry" />
        </mxCell>
        <mxCell id="zUUF1OLP11Qtt3YsDHOW-49" style="edgeStyle=orthogonalEdgeStyle;rounded=0;orthogonalLoop=1;jettySize=auto;html=1;exitX=1;exitY=0.5;exitDx=0;exitDy=0;entryX=0;entryY=0.5;entryDx=0;entryDy=0;" edge="1" parent="1" source="zUUF1OLP11Qtt3YsDHOW-2" target="zUUF1OLP11Qtt3YsDHOW-32">
          <mxGeometry relative="1" as="geometry" />
        </mxCell>
        <mxCell id="zUUF1OLP11Qtt3YsDHOW-50" style="edgeStyle=orthogonalEdgeStyle;orthogonalLoop=1;jettySize=auto;html=1;exitX=1;exitY=0.5;exitDx=0;exitDy=0;entryX=0;entryY=0.5;entryDx=0;entryDy=0;strokeColor=default;curved=1;" edge="1" parent="1" source="zUUF1OLP11Qtt3YsDHOW-2" target="zUUF1OLP11Qtt3YsDHOW-33">
          <mxGeometry relative="1" as="geometry" />
        </mxCell>
        <mxCell id="zUUF1OLP11Qtt3YsDHOW-51" style="edgeStyle=orthogonalEdgeStyle;orthogonalLoop=1;jettySize=auto;html=1;exitX=1;exitY=0.5;exitDx=0;exitDy=0;entryX=0;entryY=0.5;entryDx=0;entryDy=0;curved=1;" edge="1" parent="1" source="zUUF1OLP11Qtt3YsDHOW-2" target="zUUF1OLP11Qtt3YsDHOW-34">
          <mxGeometry relative="1" as="geometry" />
        </mxCell>
        <mxCell id="zUUF1OLP11Qtt3YsDHOW-2" value="(2, 3, 1, 0, 0)" style="rounded=1;whiteSpace=wrap;html=1;" vertex="1" parent="1">
          <mxGeometry x="220" y="190" width="120" height="40" as="geometry" />
        </mxCell>
        <mxCell id="zUUF1OLP11Qtt3YsDHOW-3" value="(3, 2, 0, 1, 0)" style="rounded=1;whiteSpace=wrap;html=1;" vertex="1" parent="1">
          <mxGeometry x="220" y="250" width="120" height="40" as="geometry" />
        </mxCell>
        <mxCell id="zUUF1OLP11Qtt3YsDHOW-4" value="(2, 2, 1, 1, 0)" style="rounded=1;whiteSpace=wrap;html=1;" vertex="1" parent="1">
          <mxGeometry x="220" y="310" width="120" height="40" as="geometry" />
        </mxCell>
        <mxCell id="zUUF1OLP11Qtt3YsDHOW-67" style="edgeStyle=orthogonalEdgeStyle;orthogonalLoop=1;jettySize=auto;html=1;exitX=1;exitY=0.5;exitDx=0;exitDy=0;entryX=0;entryY=0.5;entryDx=0;entryDy=0;curved=1;" edge="1" parent="1" source="zUUF1OLP11Qtt3YsDHOW-5" target="zUUF1OLP11Qtt3YsDHOW-57">
          <mxGeometry relative="1" as="geometry" />
        </mxCell>
        <mxCell id="zUUF1OLP11Qtt3YsDHOW-68" style="edgeStyle=orthogonalEdgeStyle;orthogonalLoop=1;jettySize=auto;html=1;exitX=1;exitY=0.5;exitDx=0;exitDy=0;entryX=0;entryY=0.5;entryDx=0;entryDy=0;curved=1;" edge="1" parent="1" source="zUUF1OLP11Qtt3YsDHOW-5" target="zUUF1OLP11Qtt3YsDHOW-58">
          <mxGeometry relative="1" as="geometry" />
        </mxCell>
        <mxCell id="zUUF1OLP11Qtt3YsDHOW-69" style="edgeStyle=orthogonalEdgeStyle;orthogonalLoop=1;jettySize=auto;html=1;exitX=1;exitY=0.5;exitDx=0;exitDy=0;entryX=0;entryY=0.5;entryDx=0;entryDy=0;curved=1;" edge="1" parent="1" source="zUUF1OLP11Qtt3YsDHOW-5" target="zUUF1OLP11Qtt3YsDHOW-59">
          <mxGeometry relative="1" as="geometry" />
        </mxCell>
        <mxCell id="zUUF1OLP11Qtt3YsDHOW-70" style="edgeStyle=orthogonalEdgeStyle;orthogonalLoop=1;jettySize=auto;html=1;exitX=1;exitY=0.5;exitDx=0;exitDy=0;entryX=0;entryY=0.5;entryDx=0;entryDy=0;curved=1;" edge="1" parent="1" source="zUUF1OLP11Qtt3YsDHOW-5" target="zUUF1OLP11Qtt3YsDHOW-60">
          <mxGeometry relative="1" as="geometry" />
        </mxCell>
        <mxCell id="zUUF1OLP11Qtt3YsDHOW-71" style="edgeStyle=orthogonalEdgeStyle;orthogonalLoop=1;jettySize=auto;html=1;exitX=1;exitY=0.5;exitDx=0;exitDy=0;entryX=0;entryY=0.5;entryDx=0;entryDy=0;curved=1;" edge="1" parent="1" source="zUUF1OLP11Qtt3YsDHOW-5" target="zUUF1OLP11Qtt3YsDHOW-61">
          <mxGeometry relative="1" as="geometry" />
        </mxCell>
        <mxCell id="zUUF1OLP11Qtt3YsDHOW-5" value="(1, 3, 2, 0, 0)" style="rounded=1;whiteSpace=wrap;html=1;" vertex="1" parent="1">
          <mxGeometry x="220" y="370" width="120" height="40" as="geometry" />
        </mxCell>
        <mxCell id="zUUF1OLP11Qtt3YsDHOW-6" value="(3, 1, 0, 2, 0)" style="rounded=1;whiteSpace=wrap;html=1;" vertex="1" parent="1">
          <mxGeometry x="220" y="430" width="120" height="40" as="geometry" />
        </mxCell>
        <mxCell id="zUUF1OLP11Qtt3YsDHOW-18" value="" style="verticalLabelPosition=bottom;verticalAlign=top;html=1;shape=mxgraph.basic.x;fillColor=#f8cecc;strokeColor=#b85450;opacity=70;" vertex="1" parent="1">
          <mxGeometry x="250" y="240" width="60" height="60" as="geometry" />
        </mxCell>
        <mxCell id="zUUF1OLP11Qtt3YsDHOW-19" value="" style="verticalLabelPosition=bottom;verticalAlign=top;html=1;shape=mxgraph.basic.x;fillColor=#f8cecc;strokeColor=#b85450;opacity=70;" vertex="1" parent="1">
          <mxGeometry x="250" y="420" width="60" height="60" as="geometry" />
        </mxCell>
        <mxCell id="zUUF1OLP11Qtt3YsDHOW-30" value="(3, 3, 0, 0, 1)" style="rounded=1;whiteSpace=wrap;html=1;" vertex="1" parent="1">
          <mxGeometry x="400" y="70" width="120" height="40" as="geometry" />
        </mxCell>
        <mxCell id="zUUF1OLP11Qtt3YsDHOW-31" value="(1, 4, 1, -1, 1)" style="rounded=1;whiteSpace=wrap;html=1;" vertex="1" parent="1">
          <mxGeometry x="400" y="130" width="120" height="40" as="geometry" />
        </mxCell>
        <mxCell id="zUUF1OLP11Qtt3YsDHOW-32" value="(3, 4, 0, -1, 1)" style="rounded=1;whiteSpace=wrap;html=1;" vertex="1" parent="1">
          <mxGeometry x="400" y="190" width="120" height="40" as="geometry" />
        </mxCell>
        <mxCell id="zUUF1OLP11Qtt3YsDHOW-33" value="(4, 3, -1, 0, 1)" style="rounded=1;whiteSpace=wrap;html=1;" vertex="1" parent="1">
          <mxGeometry x="400" y="250" width="120" height="40" as="geometry" />
        </mxCell>
        <mxCell id="zUUF1OLP11Qtt3YsDHOW-34" value="(2, 5, 1, -2, 1)" style="rounded=1;whiteSpace=wrap;html=1;" vertex="1" parent="1">
          <mxGeometry x="400" y="310" width="120" height="40" as="geometry" />
        </mxCell>
        <mxCell id="zUUF1OLP11Qtt3YsDHOW-52" value="" style="verticalLabelPosition=bottom;verticalAlign=top;html=1;shape=mxgraph.basic.x;fillColor=#f8cecc;strokeColor=#b85450;opacity=70;" vertex="1" parent="1">
          <mxGeometry x="430" y="60" width="60" height="60" as="geometry" />
        </mxCell>
        <mxCell id="zUUF1OLP11Qtt3YsDHOW-53" value="" style="verticalLabelPosition=bottom;verticalAlign=top;html=1;shape=mxgraph.basic.x;fillColor=#f8cecc;strokeColor=#b85450;opacity=70;" vertex="1" parent="1">
          <mxGeometry x="430" y="120" width="60" height="60" as="geometry" />
        </mxCell>
        <mxCell id="zUUF1OLP11Qtt3YsDHOW-54" value="" style="verticalLabelPosition=bottom;verticalAlign=top;html=1;shape=mxgraph.basic.x;fillColor=#f8cecc;strokeColor=#b85450;opacity=70;" vertex="1" parent="1">
          <mxGeometry x="430" y="180" width="60" height="60" as="geometry" />
        </mxCell>
        <mxCell id="zUUF1OLP11Qtt3YsDHOW-55" value="" style="verticalLabelPosition=bottom;verticalAlign=top;html=1;shape=mxgraph.basic.x;fillColor=#f8cecc;strokeColor=#b85450;opacity=70;" vertex="1" parent="1">
          <mxGeometry x="430" y="240" width="60" height="60" as="geometry" />
        </mxCell>
        <mxCell id="zUUF1OLP11Qtt3YsDHOW-56" value="" style="verticalLabelPosition=bottom;verticalAlign=top;html=1;shape=mxgraph.basic.x;fillColor=#f8cecc;strokeColor=#b85450;opacity=70;" vertex="1" parent="1">
          <mxGeometry x="430" y="300" width="60" height="60" as="geometry" />
        </mxCell>
        <mxCell id="zUUF1OLP11Qtt3YsDHOW-78" style="edgeStyle=orthogonalEdgeStyle;orthogonalLoop=1;jettySize=auto;html=1;exitX=1;exitY=0.5;exitDx=0;exitDy=0;entryX=0;entryY=0.5;entryDx=0;entryDy=0;curved=1;" edge="1" parent="1" source="zUUF1OLP11Qtt3YsDHOW-57" target="zUUF1OLP11Qtt3YsDHOW-76">
          <mxGeometry relative="1" as="geometry" />
        </mxCell>
        <mxCell id="zUUF1OLP11Qtt3YsDHOW-57" value="(2, 3, 1, 0, 1)" style="rounded=1;whiteSpace=wrap;html=1;" vertex="1" parent="1">
          <mxGeometry x="400" y="380" width="120" height="40" as="geometry" />
        </mxCell>
        <mxCell id="zUUF1OLP11Qtt3YsDHOW-58" value="(1, 4, 2, -1, 1)" style="rounded=1;whiteSpace=wrap;html=1;" vertex="1" parent="1">
          <mxGeometry x="400" y="440" width="120" height="40" as="geometry" />
        </mxCell>
        <mxCell id="zUUF1OLP11Qtt3YsDHOW-59" value="(2, 4, 1, -1, 1)" style="rounded=1;whiteSpace=wrap;html=1;" vertex="1" parent="1">
          <mxGeometry x="400" y="500" width="120" height="40" as="geometry" />
        </mxCell>
        <mxCell id="zUUF1OLP11Qtt3YsDHOW-60" value="(3, 3, 0, 0, 1)" style="rounded=1;whiteSpace=wrap;html=1;" vertex="1" parent="1">
          <mxGeometry x="400" y="560" width="120" height="40" as="geometry" />
        </mxCell>
        <mxCell id="zUUF1OLP11Qtt3YsDHOW-61" value="(1, 5, 2, -2, 1)" style="rounded=1;whiteSpace=wrap;html=1;" vertex="1" parent="1">
          <mxGeometry x="400" y="620" width="120" height="40" as="geometry" />
        </mxCell>
        <mxCell id="zUUF1OLP11Qtt3YsDHOW-72" value="" style="verticalLabelPosition=bottom;verticalAlign=top;html=1;shape=mxgraph.basic.x;fillColor=#f8cecc;strokeColor=#b85450;opacity=70;" vertex="1" parent="1">
          <mxGeometry x="430" y="430" width="60" height="60" as="geometry" />
        </mxCell>
        <mxCell id="zUUF1OLP11Qtt3YsDHOW-73" value="" style="verticalLabelPosition=bottom;verticalAlign=top;html=1;shape=mxgraph.basic.x;fillColor=#f8cecc;strokeColor=#b85450;opacity=70;" vertex="1" parent="1">
          <mxGeometry x="430" y="490" width="60" height="60" as="geometry" />
        </mxCell>
        <mxCell id="zUUF1OLP11Qtt3YsDHOW-74" value="" style="verticalLabelPosition=bottom;verticalAlign=top;html=1;shape=mxgraph.basic.x;fillColor=#f8cecc;strokeColor=#b85450;opacity=70;" vertex="1" parent="1">
          <mxGeometry x="430" y="550" width="60" height="60" as="geometry" />
        </mxCell>
        <mxCell id="zUUF1OLP11Qtt3YsDHOW-75" value="" style="verticalLabelPosition=bottom;verticalAlign=top;html=1;shape=mxgraph.basic.x;fillColor=#f8cecc;strokeColor=#b85450;opacity=70;" vertex="1" parent="1">
          <mxGeometry x="430" y="610" width="60" height="60" as="geometry" />
        </mxCell>
        <mxCell id="zUUF1OLP11Qtt3YsDHOW-79" style="edgeStyle=orthogonalEdgeStyle;rounded=0;orthogonalLoop=1;jettySize=auto;html=1;exitX=1;exitY=0.5;exitDx=0;exitDy=0;entryX=0;entryY=0.5;entryDx=0;entryDy=0;" edge="1" parent="1" source="zUUF1OLP11Qtt3YsDHOW-76" target="zUUF1OLP11Qtt3YsDHOW-77">
          <mxGeometry relative="1" as="geometry" />
        </mxCell>
        <mxCell id="zUUF1OLP11Qtt3YsDHOW-76" value="[...]" style="rounded=1;whiteSpace=wrap;html=1;" vertex="1" parent="1">
          <mxGeometry x="570" y="350" width="120" height="40" as="geometry" />
        </mxCell>
        <mxCell id="zUUF1OLP11Qtt3YsDHOW-77" value="(0, 0, 3, 3, 0)" style="rounded=1;whiteSpace=wrap;html=1;" vertex="1" parent="1">
          <mxGeometry x="740" y="350" width="120" height="40" as="geometry" />
        </mxCell>
      </root>
    </mxGraphModel>
  </diagram>
</mxfile>
